<svg width="1509" height="228" viewBox="0 0 1509 228" fill="none" xmlns="http://www.w3.org/2000/svg">
<mask id="path-1-outside-1_92:4" maskUnits="userSpaceOnUse" x="0.399902" y="0.799988" width="1508" height="228" fill="black">
<rect fill="white" x="0.399902" y="0.799988" width="1508" height="228"/>
<path d="M165.4 26.6V167H131.2V82.8L99.7999 167H72.1999L40.5999 82.6V167H6.3999V26.6H46.7999L86.1999 123.8L125.2 26.6H165.4Z"/>
<path d="M207.194 43.8C201.194 43.8 196.26 42.0667 192.394 38.6C188.66 35 186.794 30.6 186.794 25.4C186.794 20.0667 188.66 15.6667 192.394 12.2C196.26 8.59999 201.194 6.79999 207.194 6.79999C213.06 6.79999 217.86 8.59999 221.594 12.2C225.46 15.6667 227.394 20.0667 227.394 25.4C227.394 30.6 225.46 35 221.594 38.6C217.86 42.0667 213.06 43.8 207.194 43.8ZM224.194 55.4V167H189.994V55.4H224.194Z"/>
<path d="M291.378 53.8C299.245 53.8 306.111 55.4 311.978 58.6C317.978 61.8 322.578 66 325.778 71.2V55.4H359.978V166.8C359.978 177.067 357.911 186.333 353.778 194.6C349.778 203 343.578 209.667 335.178 214.6C326.911 219.533 316.578 222 304.178 222C287.645 222 274.245 218.067 263.978 210.2C253.711 202.467 247.845 191.933 246.378 178.6H280.178C281.245 182.867 283.778 186.2 287.778 188.6C291.778 191.133 296.711 192.4 302.578 192.4C309.645 192.4 315.245 190.333 319.378 186.2C323.645 182.2 325.778 175.733 325.778 166.8V151C322.445 156.2 317.845 160.467 311.978 163.8C306.111 167 299.245 168.6 291.378 168.6C282.178 168.6 273.845 166.267 266.378 161.6C258.911 156.8 252.978 150.067 248.578 141.4C244.311 132.6 242.178 122.467 242.178 111C242.178 99.5333 244.311 89.4667 248.578 80.8C252.978 72.1333 258.911 65.4667 266.378 60.8C273.845 56.1333 282.178 53.8 291.378 53.8ZM325.778 111.2C325.778 102.667 323.378 95.9333 318.578 91C313.911 86.0667 308.178 83.6 301.378 83.6C294.578 83.6 288.778 86.0667 283.978 91C279.311 95.8 276.978 102.467 276.978 111C276.978 119.533 279.311 126.333 283.978 131.4C288.778 136.333 294.578 138.8 301.378 138.8C308.178 138.8 313.911 136.333 318.578 131.4C323.378 126.467 325.778 119.733 325.778 111.2Z"/>
<path d="M494.92 55.4V167H460.72V151.8C457.254 156.733 452.52 160.733 446.52 163.8C440.654 166.733 434.12 168.2 426.92 168.2C418.387 168.2 410.854 166.333 404.32 162.6C397.787 158.733 392.72 153.2 389.12 146C385.52 138.8 383.72 130.333 383.72 120.6V55.4H417.72V116C417.72 123.467 419.654 129.267 423.52 133.4C427.387 137.533 432.587 139.6 439.12 139.6C445.787 139.6 451.054 137.533 454.92 133.4C458.787 129.267 460.72 123.467 460.72 116V55.4H494.92Z"/>
<path d="M624.686 109.4C624.686 112.6 624.486 115.933 624.086 119.4H546.686C547.219 126.333 549.419 131.667 553.286 135.4C557.286 139 562.152 140.8 567.886 140.8C576.419 140.8 582.352 137.2 585.686 130H622.086C620.219 137.333 616.819 143.933 611.886 149.8C607.086 155.667 601.019 160.267 593.686 163.6C586.352 166.933 578.152 168.6 569.086 168.6C558.152 168.6 548.419 166.267 539.886 161.6C531.352 156.933 524.686 150.267 519.886 141.6C515.086 132.933 512.686 122.8 512.686 111.2C512.686 99.6 515.019 89.4667 519.686 80.8C524.486 72.1333 531.152 65.4667 539.686 60.8C548.219 56.1333 558.019 53.8 569.086 53.8C579.886 53.8 589.486 56.0667 597.886 60.6C606.286 65.1333 612.819 71.6 617.486 80C622.286 88.4 624.686 98.2 624.686 109.4ZM589.686 100.4C589.686 94.5333 587.686 89.8667 583.686 86.4C579.686 82.9333 574.686 81.2 568.686 81.2C562.952 81.2 558.086 82.8667 554.086 86.2C550.219 89.5333 547.819 94.2667 546.886 100.4H589.686Z"/>
<path d="M676.928 19V167H642.728V19H676.928Z"/>
<path d="M737.295 111C737.295 99.5333 739.429 89.4667 743.695 80.8C748.095 72.1333 754.029 65.4667 761.495 60.8C768.962 56.1333 777.295 53.8 786.495 53.8C793.829 53.8 800.495 55.3333 806.495 58.4C812.629 61.4667 817.429 65.6 820.895 70.8V19H855.095V167H820.895V151C817.695 156.333 813.095 160.6 807.095 163.8C801.229 167 794.362 168.6 786.495 168.6C777.295 168.6 768.962 166.267 761.495 161.6C754.029 156.8 748.095 150.067 743.695 141.4C739.429 132.6 737.295 122.467 737.295 111ZM820.895 111.2C820.895 102.667 818.495 95.9333 813.695 91C809.029 86.0667 803.295 83.6 796.495 83.6C789.695 83.6 783.895 86.0667 779.095 91C774.429 95.8 772.095 102.467 772.095 111C772.095 119.533 774.429 126.333 779.095 131.4C783.895 136.333 789.695 138.8 796.495 138.8C803.295 138.8 809.029 136.333 813.695 131.4C818.495 126.467 820.895 119.733 820.895 111.2Z"/>
<path d="M985.037 109.4C985.037 112.6 984.837 115.933 984.437 119.4H907.037C907.571 126.333 909.771 131.667 913.637 135.4C917.637 139 922.504 140.8 928.237 140.8C936.771 140.8 942.704 137.2 946.037 130H982.437C980.571 137.333 977.171 143.933 972.237 149.8C967.437 155.667 961.371 160.267 954.037 163.6C946.704 166.933 938.504 168.6 929.437 168.6C918.504 168.6 908.771 166.267 900.237 161.6C891.704 156.933 885.037 150.267 880.237 141.6C875.437 132.933 873.037 122.8 873.037 111.2C873.037 99.6 875.371 89.4667 880.037 80.8C884.837 72.1333 891.504 65.4667 900.037 60.8C908.571 56.1333 918.371 53.8 929.437 53.8C940.237 53.8 949.837 56.0667 958.237 60.6C966.637 65.1333 973.171 71.6 977.837 80C982.637 88.4 985.037 98.2 985.037 109.4ZM950.037 100.4C950.037 94.5333 948.037 89.8667 944.037 86.4C940.037 82.9333 935.037 81.2 929.037 81.2C923.304 81.2 918.437 82.8667 914.437 86.2C910.571 89.5333 908.171 94.2667 907.237 100.4H950.037Z"/>
<path d="M1079.66 140.6H1124.46V167H1045.46V26.6H1079.66V140.6Z"/>
<path d="M1245.97 109.4C1245.97 112.6 1245.77 115.933 1245.37 119.4H1167.97C1168.51 126.333 1170.71 131.667 1174.57 135.4C1178.57 139 1183.44 140.8 1189.17 140.8C1197.71 140.8 1203.64 137.2 1206.97 130H1243.37C1241.51 137.333 1238.11 143.933 1233.17 149.8C1228.37 155.667 1222.31 160.267 1214.97 163.6C1207.64 166.933 1199.44 168.6 1190.37 168.6C1179.44 168.6 1169.71 166.267 1161.17 161.6C1152.64 156.933 1145.97 150.267 1141.17 141.6C1136.37 132.933 1133.97 122.8 1133.97 111.2C1133.97 99.6 1136.31 89.4667 1140.97 80.8C1145.77 72.1333 1152.44 65.4667 1160.97 60.8C1169.51 56.1333 1179.31 53.8 1190.37 53.8C1201.17 53.8 1210.77 56.0667 1219.17 60.6C1227.57 65.1333 1234.11 71.6 1238.77 80C1243.57 88.4 1245.97 98.2 1245.97 109.4ZM1210.97 100.4C1210.97 94.5333 1208.97 89.8667 1204.97 86.4C1200.97 82.9333 1195.97 81.2 1189.97 81.2C1184.24 81.2 1179.37 82.8667 1175.37 86.2C1171.51 89.5333 1169.11 94.2667 1168.17 100.4H1210.97Z"/>
<path d="M1314.82 168.6C1303.88 168.6 1294.02 166.267 1285.22 161.6C1276.55 156.933 1269.68 150.267 1264.62 141.6C1259.68 132.933 1257.22 122.8 1257.22 111.2C1257.22 99.7333 1259.75 89.6667 1264.82 81C1269.88 72.2 1276.82 65.4667 1285.62 60.8C1294.42 56.1333 1304.28 53.8 1315.22 53.8C1326.15 53.8 1336.02 56.1333 1344.82 60.8C1353.62 65.4667 1360.55 72.2 1365.62 81C1370.68 89.6667 1373.22 99.7333 1373.22 111.2C1373.22 122.667 1370.62 132.8 1365.42 141.6C1360.35 150.267 1353.35 156.933 1344.42 161.6C1335.62 166.267 1325.75 168.6 1314.82 168.6ZM1314.82 139C1321.35 139 1326.88 136.6 1331.42 131.8C1336.08 127 1338.42 120.133 1338.42 111.2C1338.42 102.267 1336.15 95.4 1331.62 90.6C1327.22 85.8 1321.75 83.4 1315.22 83.4C1308.55 83.4 1303.02 85.8 1298.62 90.6C1294.22 95.2667 1292.02 102.133 1292.02 111.2C1292.02 120.133 1294.15 127 1298.42 131.8C1302.82 136.6 1308.28 139 1314.82 139Z"/>
<path d="M1459.36 54.2C1472.43 54.2 1482.83 58.4667 1490.56 67C1498.43 75.4 1502.36 87 1502.36 101.8V167H1468.36V106.4C1468.36 98.9333 1466.43 93.1333 1462.56 89C1458.69 84.8667 1453.49 82.8 1446.96 82.8C1440.43 82.8 1435.23 84.8667 1431.36 89C1427.49 93.1333 1425.56 98.9333 1425.56 106.4V167H1391.36V55.4H1425.56V70.2C1429.03 65.2667 1433.69 61.4 1439.56 58.6C1445.43 55.6667 1452.03 54.2 1459.36 54.2Z"/>
</mask>
<path d="M165.4 26.6V167H131.2V82.8L99.7999 167H72.1999L40.5999 82.6V167H6.3999V26.6H46.7999L86.1999 123.8L125.2 26.6H165.4Z" stroke="white" stroke-width="12" mask="url(#path-1-outside-1_92:4)"/>
<path d="M207.194 43.8C201.194 43.8 196.26 42.0667 192.394 38.6C188.66 35 186.794 30.6 186.794 25.4C186.794 20.0667 188.66 15.6667 192.394 12.2C196.26 8.59999 201.194 6.79999 207.194 6.79999C213.06 6.79999 217.86 8.59999 221.594 12.2C225.46 15.6667 227.394 20.0667 227.394 25.4C227.394 30.6 225.46 35 221.594 38.6C217.86 42.0667 213.06 43.8 207.194 43.8ZM224.194 55.4V167H189.994V55.4H224.194Z" stroke="white" stroke-width="12" mask="url(#path-1-outside-1_92:4)"/>
<path d="M291.378 53.8C299.245 53.8 306.111 55.4 311.978 58.6C317.978 61.8 322.578 66 325.778 71.2V55.4H359.978V166.8C359.978 177.067 357.911 186.333 353.778 194.6C349.778 203 343.578 209.667 335.178 214.6C326.911 219.533 316.578 222 304.178 222C287.645 222 274.245 218.067 263.978 210.2C253.711 202.467 247.845 191.933 246.378 178.6H280.178C281.245 182.867 283.778 186.2 287.778 188.6C291.778 191.133 296.711 192.4 302.578 192.4C309.645 192.4 315.245 190.333 319.378 186.2C323.645 182.2 325.778 175.733 325.778 166.8V151C322.445 156.2 317.845 160.467 311.978 163.8C306.111 167 299.245 168.6 291.378 168.6C282.178 168.6 273.845 166.267 266.378 161.6C258.911 156.8 252.978 150.067 248.578 141.4C244.311 132.6 242.178 122.467 242.178 111C242.178 99.5333 244.311 89.4667 248.578 80.8C252.978 72.1333 258.911 65.4667 266.378 60.8C273.845 56.1333 282.178 53.8 291.378 53.8ZM325.778 111.2C325.778 102.667 323.378 95.9333 318.578 91C313.911 86.0667 308.178 83.6 301.378 83.6C294.578 83.6 288.778 86.0667 283.978 91C279.311 95.8 276.978 102.467 276.978 111C276.978 119.533 279.311 126.333 283.978 131.4C288.778 136.333 294.578 138.8 301.378 138.8C308.178 138.8 313.911 136.333 318.578 131.4C323.378 126.467 325.778 119.733 325.778 111.2Z" stroke="white" stroke-width="12" mask="url(#path-1-outside-1_92:4)"/>
<path d="M494.92 55.4V167H460.72V151.8C457.254 156.733 452.52 160.733 446.52 163.8C440.654 166.733 434.12 168.2 426.92 168.2C418.387 168.2 410.854 166.333 404.32 162.6C397.787 158.733 392.72 153.2 389.12 146C385.52 138.8 383.72 130.333 383.72 120.6V55.4H417.72V116C417.72 123.467 419.654 129.267 423.52 133.4C427.387 137.533 432.587 139.6 439.12 139.6C445.787 139.6 451.054 137.533 454.92 133.4C458.787 129.267 460.72 123.467 460.72 116V55.4H494.92Z" stroke="white" stroke-width="12" mask="url(#path-1-outside-1_92:4)"/>
<path d="M624.686 109.4C624.686 112.6 624.486 115.933 624.086 119.4H546.686C547.219 126.333 549.419 131.667 553.286 135.4C557.286 139 562.152 140.8 567.886 140.8C576.419 140.8 582.352 137.2 585.686 130H622.086C620.219 137.333 616.819 143.933 611.886 149.8C607.086 155.667 601.019 160.267 593.686 163.6C586.352 166.933 578.152 168.6 569.086 168.6C558.152 168.6 548.419 166.267 539.886 161.6C531.352 156.933 524.686 150.267 519.886 141.6C515.086 132.933 512.686 122.8 512.686 111.2C512.686 99.6 515.019 89.4667 519.686 80.8C524.486 72.1333 531.152 65.4667 539.686 60.8C548.219 56.1333 558.019 53.8 569.086 53.8C579.886 53.8 589.486 56.0667 597.886 60.6C606.286 65.1333 612.819 71.6 617.486 80C622.286 88.4 624.686 98.2 624.686 109.4ZM589.686 100.4C589.686 94.5333 587.686 89.8667 583.686 86.4C579.686 82.9333 574.686 81.2 568.686 81.2C562.952 81.2 558.086 82.8667 554.086 86.2C550.219 89.5333 547.819 94.2667 546.886 100.4H589.686Z" stroke="white" stroke-width="12" mask="url(#path-1-outside-1_92:4)"/>
<path d="M676.928 19V167H642.728V19H676.928Z" stroke="white" stroke-width="12" mask="url(#path-1-outside-1_92:4)"/>
<path d="M737.295 111C737.295 99.5333 739.429 89.4667 743.695 80.8C748.095 72.1333 754.029 65.4667 761.495 60.8C768.962 56.1333 777.295 53.8 786.495 53.8C793.829 53.8 800.495 55.3333 806.495 58.4C812.629 61.4667 817.429 65.6 820.895 70.8V19H855.095V167H820.895V151C817.695 156.333 813.095 160.6 807.095 163.8C801.229 167 794.362 168.6 786.495 168.6C777.295 168.6 768.962 166.267 761.495 161.6C754.029 156.8 748.095 150.067 743.695 141.4C739.429 132.6 737.295 122.467 737.295 111ZM820.895 111.2C820.895 102.667 818.495 95.9333 813.695 91C809.029 86.0667 803.295 83.6 796.495 83.6C789.695 83.6 783.895 86.0667 779.095 91C774.429 95.8 772.095 102.467 772.095 111C772.095 119.533 774.429 126.333 779.095 131.4C783.895 136.333 789.695 138.8 796.495 138.8C803.295 138.8 809.029 136.333 813.695 131.4C818.495 126.467 820.895 119.733 820.895 111.2Z" stroke="white" stroke-width="12" mask="url(#path-1-outside-1_92:4)"/>
<path d="M985.037 109.4C985.037 112.6 984.837 115.933 984.437 119.4H907.037C907.571 126.333 909.771 131.667 913.637 135.4C917.637 139 922.504 140.8 928.237 140.8C936.771 140.8 942.704 137.2 946.037 130H982.437C980.571 137.333 977.171 143.933 972.237 149.8C967.437 155.667 961.371 160.267 954.037 163.6C946.704 166.933 938.504 168.6 929.437 168.6C918.504 168.6 908.771 166.267 900.237 161.6C891.704 156.933 885.037 150.267 880.237 141.6C875.437 132.933 873.037 122.8 873.037 111.2C873.037 99.6 875.371 89.4667 880.037 80.8C884.837 72.1333 891.504 65.4667 900.037 60.8C908.571 56.1333 918.371 53.8 929.437 53.8C940.237 53.8 949.837 56.0667 958.237 60.6C966.637 65.1333 973.171 71.6 977.837 80C982.637 88.4 985.037 98.2 985.037 109.4ZM950.037 100.4C950.037 94.5333 948.037 89.8667 944.037 86.4C940.037 82.9333 935.037 81.2 929.037 81.2C923.304 81.2 918.437 82.8667 914.437 86.2C910.571 89.5333 908.171 94.2667 907.237 100.4H950.037Z" stroke="white" stroke-width="12" mask="url(#path-1-outside-1_92:4)"/>
<path d="M1079.66 140.6H1124.46V167H1045.46V26.6H1079.66V140.6Z" stroke="white" stroke-width="12" mask="url(#path-1-outside-1_92:4)"/>
<path d="M1245.97 109.4C1245.97 112.6 1245.77 115.933 1245.37 119.4H1167.97C1168.51 126.333 1170.71 131.667 1174.57 135.4C1178.57 139 1183.44 140.8 1189.17 140.8C1197.71 140.8 1203.64 137.2 1206.97 130H1243.37C1241.51 137.333 1238.11 143.933 1233.17 149.8C1228.37 155.667 1222.31 160.267 1214.97 163.6C1207.64 166.933 1199.44 168.6 1190.37 168.6C1179.44 168.6 1169.71 166.267 1161.17 161.6C1152.64 156.933 1145.97 150.267 1141.17 141.6C1136.37 132.933 1133.97 122.8 1133.97 111.2C1133.97 99.6 1136.31 89.4667 1140.97 80.8C1145.77 72.1333 1152.44 65.4667 1160.97 60.8C1169.51 56.1333 1179.31 53.8 1190.37 53.8C1201.17 53.8 1210.77 56.0667 1219.17 60.6C1227.57 65.1333 1234.11 71.6 1238.77 80C1243.57 88.4 1245.97 98.2 1245.97 109.4ZM1210.97 100.4C1210.97 94.5333 1208.97 89.8667 1204.97 86.4C1200.97 82.9333 1195.97 81.2 1189.97 81.2C1184.24 81.2 1179.37 82.8667 1175.37 86.2C1171.51 89.5333 1169.11 94.2667 1168.17 100.4H1210.97Z" stroke="white" stroke-width="12" mask="url(#path-1-outside-1_92:4)"/>
<path d="M1314.82 168.6C1303.88 168.6 1294.02 166.267 1285.22 161.6C1276.55 156.933 1269.68 150.267 1264.62 141.6C1259.68 132.933 1257.22 122.8 1257.22 111.2C1257.22 99.7333 1259.75 89.6667 1264.82 81C1269.88 72.2 1276.82 65.4667 1285.62 60.8C1294.42 56.1333 1304.28 53.8 1315.22 53.8C1326.15 53.8 1336.02 56.1333 1344.82 60.8C1353.62 65.4667 1360.55 72.2 1365.62 81C1370.68 89.6667 1373.22 99.7333 1373.22 111.2C1373.22 122.667 1370.62 132.8 1365.42 141.6C1360.35 150.267 1353.35 156.933 1344.42 161.6C1335.62 166.267 1325.75 168.6 1314.82 168.6ZM1314.82 139C1321.35 139 1326.88 136.6 1331.42 131.8C1336.08 127 1338.42 120.133 1338.42 111.2C1338.42 102.267 1336.15 95.4 1331.62 90.6C1327.22 85.8 1321.75 83.4 1315.22 83.4C1308.55 83.4 1303.02 85.8 1298.62 90.6C1294.22 95.2667 1292.02 102.133 1292.02 111.2C1292.02 120.133 1294.15 127 1298.42 131.8C1302.82 136.6 1308.28 139 1314.82 139Z" stroke="white" stroke-width="12" mask="url(#path-1-outside-1_92:4)"/>
<path d="M1459.36 54.2C1472.43 54.2 1482.83 58.4667 1490.56 67C1498.43 75.4 1502.36 87 1502.36 101.8V167H1468.36V106.4C1468.36 98.9333 1466.43 93.1333 1462.56 89C1458.69 84.8667 1453.49 82.8 1446.96 82.8C1440.43 82.8 1435.23 84.8667 1431.36 89C1427.49 93.1333 1425.56 98.9333 1425.56 106.4V167H1391.36V55.4H1425.56V70.2C1429.03 65.2667 1433.69 61.4 1439.56 58.6C1445.43 55.6667 1452.03 54.2 1459.36 54.2Z" stroke="white" stroke-width="12" mask="url(#path-1-outside-1_92:4)"/>
</svg>
